/* XPM */
static char *_____________[] = {
/* columns rows colors chars-per-pixel */
"29 28 57 1",
"  c #011529",
". c #01172C",
"X c #01182D",
"o c #01192E",
"O c #022136",
"+ c #02243A",
"@ c #02293E",
"# c #032F44",
"$ c #04344B",
"% c #053C52",
"& c #053E54",
"* c #06445B",
"= c #07465E",
"- c #084860",
"; c #167995",
": c #18809C",
"> c #19829E",
", c #1884A1",
"< c #1C8CA7",
"1 c #1B8DAA",
"2 c #1E9BB9",
"3 c #269FBB",
"4 c #269FBC",
"5 c #20A2C0",
"6 c #21A3C2",
"7 c #21A4C3",
"8 c #28A4C0",
"9 c #28A5C1",
"0 c #2AA7C4",
"q c #22A8C7",
"w c #2BA9C6",
"e c #23ABC9",
"r c #23ACCA",
"t c #23ADCB",
"y c #2DADCB",
"u c #2DB0CD",
"i c #25B1D0",
"p c #25B3D2",
"a c #25B5D4",
"s c #27B8D8",
"d c #27BBDB",
"f c #2FBDDB",
"g c #28BEDE",
"h c #29BEDE",
"j c #2ABEDE",
"k c #2DBEDD",
"l c #2EBFDE",
"z c #30B4D1",
"x c #30B6D3",
"c c #30B6D4",
"v c #30B8D5",
"b c #30B9D7",
"n c #31C0DF",
"m c #32C0DF",
"M c #33C1DF",
"N c #35C2E0",
"B c None",
/* pixels */
"BBBBBBBBBNlcy939yblMBBBBBBBBB",
"BBBBBBBlx<X       .1xlBBBBBBB",
"BBBBBNb>             >bNBBBBB",
"BBBBMwX               XwmBBBB",
"BBBm4                   4mBBB",
"BBN0                     wNBB",
"Bhc.                      chB",
"Bh;                       ;hB",
"hu                         zh",
"N:      XO         O.      ;l",
"l      X,5+       +5,.      l",
"z     X1hg6@     @6gg1X     z",
"0     &hggge@   @egghh&     w",
"8      *aggge# #rggga=      8",
"8       *sgggt=tgghs*       8",
"w        &agggghhha%        w",
"z         %phhgggp%         z",
"f          $phggi$          f",
"l>          $rhr$          >l",
"hy           #2#           ul",
"Bh;                       ;hB",
"Bhc.                      chB",
"BBN0                     wNBB",
"BBBN4                   4mBBB",
"BBBBmwX               XwmBBBB",
"BBBBBNb>             >bNBBBBB",
"BBBBBBBlx<X       X<xlBBBBBBB",
"BBBBBBBBBMlby939yblMBBBBBBBBB"
};
