/* XPM */
static char *_____________[] = {
/* columns rows colors chars-per-pixel */
"29 28 147 2",
"   c #011529",
".  c #02162A",
"X  c #03172B",
"o  c #01172C",
"O  c #01182D",
"+  c #01192E",
"@  c #04182C",
"#  c #05192C",
"$  c #071B2E",
"%  c #081B2F",
"&  c #091C30",
"*  c #0B1E31",
"=  c #022136",
"-  c #0D2033",
";  c #0E2134",
":  c #0F2235",
">  c #02243A",
",  c #02293E",
"<  c #122537",
"1  c #15273A",
"2  c #16283B",
"3  c #17293B",
"4  c #192B3D",
"5  c #1B2D3F",
"6  c #032F44",
"7  c #043045",
"8  c #04344B",
"9  c #05354C",
"0  c #1E3041",
"q  c #1F3142",
"w  c #053C52",
"e  c #053E54",
"r  c #203143",
"t  c #223345",
"y  c #233446",
"u  c #263748",
"i  c #273849",
"p  c #293A4B",
"a  c #2A3B4B",
"s  c #2C3C4D",
"d  c #2E3E4F",
"f  c #07455C",
"g  c #07465E",
"h  c #314151",
"j  c #324252",
"k  c #334353",
"l  c #344454",
"z  c #374756",
"x  c #3B4A5A",
"c  c #3C4B5B",
"v  c #3D4C5B",
"b  c #3E4D5C",
"n  c #3F4E5D",
"m  c #084860",
"M  c #425160",
"N  c #435363",
"B  c #455362",
"V  c #465463",
"C  c #475564",
"Z  c #4B5967",
"A  c #4C5A68",
"S  c #4E5C6A",
"D  c #4F5D6A",
"F  c #505D6B",
"G  c #515E6C",
"H  c #53606E",
"J  c #54616F",
"K  c #576471",
"L  c #586572",
"P  c #596673",
"I  c #5B6A77",
"U  c #5E6A77",
"Y  c #5F6B78",
"T  c #606C79",
"R  c #616D7A",
"E  c #64707C",
"W  c #66727E",
"Q  c #68747F",
"!  c #167995",
"~  c #6D7884",
"^  c #6C7985",
"/  c #6E7984",
"(  c #18809C",
")  c #19829E",
"_  c #1884A1",
"`  c #1C8CA7",
"'  c #1B8DAA",
"]  c #1F9BB9",
"[  c #2A8EA8",
"{  c #318FA9",
"}  c #269FBB",
"|  c #269FBC",
" . c #46A4BC",
".. c #20A2C0",
"X. c #21A3C2",
"o. c #21A4C3",
"O. c #28A4C0",
"+. c #28A5C1",
"@. c #29A5C1",
"#. c #2AA7C4",
"$. c #22A8C7",
"%. c #2BA9C6",
"&. c #23ABC9",
"*. c #23ACCA",
"=. c #23ADCB",
"-. c #2EABC8",
";. c #2DADCB",
":. c #2DB0CD",
">. c #3EB4CE",
",. c #25B1D0",
"<. c #25B3D2",
"1. c #25B5D4",
"2. c #27B8D8",
"3. c #27BBDB",
"4. c #2FBDDB",
"5. c #28BEDE",
"6. c #29BEDE",
"7. c #2ABEDE",
"8. c #2DBEDD",
"9. c #2EBFDE",
"0. c #30B4D1",
"q. c #30B6D3",
"w. c #33B6D3",
"e. c #30B6D4",
"r. c #38B6D3",
"t. c #30B8D5",
"y. c #30B9D7",
"u. c #31BEDC",
"i. c #3BBCD9",
"p. c #4AACC3",
"a. c #41B1CB",
"s. c #4CB7D0",
"d. c #43B8D2",
"f. c #4BBAD4",
"g. c #41BFDB",
"h. c #46BDD8",
"j. c #2FC0DF",
"k. c #31C0DE",
"l. c #31C0DF",
"z. c #32C0DF",
"x. c #33C1DF",
"c. c #34C1DF",
"v. c #3EC0DC",
"b. c #35C2E0",
"n. c #36C2E0",
"m. c #37C2E0",
"M. c None",
/* pixels */
"M.M.M.M.M.M.M.M.M.b.8.i.h.f.s.f.d.v.j.b.M.M.M.M.M.M.M.M.M.",
"M.M.M.M.M.M.M.b.g.p.~ ~ / / / / ~ ~ ^ p.i.b.M.M.M.M.M.M.M.",
"M.M.M.M.M.b.i. .E ~ E ~ Q Q ~ E ~ ~ E ~ E  .v.b.M.M.M.M.M.",
"M.M.M.M.b.d.I Y T T T T T Y Y Y I Y Y Y T Y I d.b.M.M.M.M.",
"M.M.M.b.a.H K L P L K H H F F H K H K P P P K K a.z.M.M.M.",
"M.M.b.>.A S D G S A V M b b x x v M V A D D D D A >.b.M.M.",
"M.6.i.B V V V V n z d i y 0 0 0 y i d z v V V V V M i.7.M.",
"M.6.{ c v v c l s 0 2 ; - % $ % * : 2 r p k x v b x { 7.M.",
"6.r.h k k h d y 4 : % # . 7 } 7   # * < 4 r s h k k k r.8.",
"b.[ p p p u 0 2 ; $ # . 9 =.5.=.9   # # ; 2 0 y p s p [ b.",
"u.0 r r 0 0 2 ; $ . . 8 ,.5.5.5.,.8   # * ; 1 0 0 0 r 0 u.",
"w.2 2 2 1 < * & # . e <.5.5.5.5.6.<.e   X % * 1 2 4 2 2 w.",
"-.; ; ; ; * # #   e 1.5.5.5.5.5.5.5.<.e . # $ * ; ; ; ; %.",
"@.# # # # X #   f 1.5.5.5.=.g =.5.5.5.2.f   + # . # # # @.",
"@.            f 2.6.5.5.=.7   7 &.5.6.6.2.g             O.",
"%.          e 5.5.5.5.$.,       , $.5.6.6.3.e           %.",
"0.          + ' 5.5.$.,           , o.5.5.' +           0.",
"8.            + _ ..>               > o._ +             8.",
"u.(             + =                   + +             ( z.",
"6.:.                                                  :.6.",
"M.6.!                                               ! 6.M.",
"M.6.e.X                                             e.6.M.",
"M.M.b.#.                                          %.b.M.M.",
"M.M.M.b.|                                       | z.M.M.M.",
"M.M.M.M.b.%.+                               + %.z.M.M.M.M.",
"M.M.M.M.M.b.y.(                           ) y.b.M.M.M.M.M.",
"M.M.M.M.M.M.M.8.0.' +               X ` w.j.M.M.M.M.M.M.M.",
"M.M.M.M.M.M.M.M.M.b.8.t.-.@.} @.-.t.6.b.M.M.M.M.M.M.M.M.M."
};
