/* XPM */
static char *arrowdownover[] = {
/* columns rows colors chars-per-pixel */
"29 28 138 2 ",
"   c #011529",
".  c #02162A",
"X  c #03172B",
"o  c #01172C",
"O  c #01182D",
"+  c #01192E",
"@  c #04182C",
"#  c #05192C",
"$  c #071B2E",
"%  c #081B2F",
"&  c #091C30",
"*  c #0B1E31",
"=  c #022136",
"-  c #0D2033",
";  c #0E2134",
":  c #0F2235",
">  c #02243A",
",  c #02293E",
"<  c #122537",
"1  c #15273A",
"2  c #16283B",
"3  c #17293B",
"4  c #192B3D",
"5  c #1B2D3F",
"6  c #032F44",
"7  c #043045",
"8  c #043249",
"9  c #04344B",
"0  c #05354C",
"q  c #1E3041",
"w  c #1F3142",
"e  c #053C52",
"r  c #053E54",
"t  c #073E55",
"y  c #093F56",
"u  c #203143",
"i  c #223345",
"p  c #233446",
"a  c #263748",
"s  c #273849",
"d  c #293A4B",
"f  c #2A3B4B",
"g  c #2C3C4D",
"h  c #2E3E4F",
"j  c #07455C",
"k  c #07465E",
"l  c #314151",
"z  c #324252",
"x  c #334353",
"c  c #344454",
"v  c #374756",
"b  c #3B4A5A",
"n  c #3C4B5B",
"m  c #3D4C5B",
"M  c #3E4D5C",
"N  c #3F4E5D",
"B  c #084860",
"V  c #0F5066",
"C  c #2C5B6E",
"Z  c #3B5F71",
"A  c #425160",
"S  c #435363",
"D  c #455362",
"F  c #465463",
"G  c #475564",
"H  c #4B5967",
"J  c #4C5A68",
"K  c #4E5C6A",
"L  c #4F5D6A",
"P  c #505D6B",
"I  c #515E6C",
"U  c #53606E",
"Y  c #54616F",
"T  c #576471",
"R  c #586572",
"E  c #596673",
"W  c #5B6A77",
"Q  c #5E6A77",
"!  c #5F6B78",
"~  c #606C79",
"^  c #616D7A",
"/  c #64707C",
"(  c #66727E",
")  c #68747F",
"_  c #236C84",
"`  c #226F87",
"'  c #28778E",
"]  c #297890",
"[  c #2B7990",
"{  c #2C7D95",
"}  c #307F96",
"|  c #6D7884",
" . c #6C7985",
".. c #6E7984",
"X. c #2F8299",
"o. c #3A859B",
"O. c #39869D",
"+. c #1884A1",
"@. c #1B8DAA",
"#. c #1F9BB9",
"$. c #3B8FA6",
"%. c #678896",
"&. c #4795AA",
"*. c #489AB0",
"=. c #4F9CB0",
"-. c #559DB1",
";. c #679CAD",
":. c #7298A5",
">. c #47A0B6",
",. c #5EA3B6",
"<. c #50A5BA",
"1. c #67A1B3",
"2. c #76ADBC",
"3. c #20A2C0",
"4. c #21A3C2",
"5. c #21A4C3",
"6. c #22A8C7",
"7. c #23ABC9",
"8. c #23ACCA",
"9. c #23ADCB",
"0. c #25B1D0",
"q. c #25B3D2",
"w. c #25B5D4",
"e. c #27B8D8",
"r. c #27BBDB",
"t. c #28BEDE",
"y. c #67B3C6",
"u. c #74B7C8",
"i. c #75BBCC",
"p. c #78BBCC",
"a. c #84ADBA",
"s. c #87B3C1",
"d. c #8FBBC8",
"f. c #91C2D0",
"g. c #90C6D3",
"h. c #9BC7D2",
"j. c #AFD8E2",
"k. c None",
/* pixels */
"k.k.k.k.k.k.k.k.k.k.i.=.O.] ` ' O.=.i.k.k.k.k.k.k.k.k.k.k.",
"k.k.k.k.k.k.k.k.*.V O               O V *.k.k.k.k.k.k.k.k.",
"k.k.k.k.k.k.<.y                           j <.k.k.k.k.k.k.",
"k.k.k.k.k.X.O                                 X.k.k.k.k.k.",
"k.k.k.k.`                                       ` k.k.k.k.",
"k.k.k.{                                           { k.k.k.",
"k.k.>.o                                           o >.k.k.",
"k.k.8                                               8 k.k.",
"k.$.                                                  $.k.",
"k.t               =                   = o             y k.",
"y.            O +.4.>               > 4.+.O             y.",
"&.          O @.t.t.4.,           , 4.t.t.@.O           &.",
"X.          t r.t.t.t.6.,       , 6.t.t.t.r.t           X.",
"'             k e.t.t.t.7.6   6 9.t.t.t.w.k             ' ",
"[ # # # # # #   j e.t.t.t.9.B 9.t.t.t.e.j   X # # # # # ] ",
"o.; ; ; * * % #   e w.t.t.t.t.t.t.t.w.e o # % * - ; ; - o.",
"-.3 3 3 2 < - % #   t q.t.t.t.t.t.0.e   # % ; < 1 4 2 2 -.",
"p.u u u u 5 2 - # #   9 0.t.t.t.0.0   # % ; 1 5 w u u w p.",
"k.C d d d a w 2 - $ #   9 9.t.9.9   # % ; 2 w a f f d C k.",
"k.,.z z z z g p 5 : & # # 7 #.7 O # & : 4 p g z z z z ,.k.",
"k.k.Z b m m b c f w 2 ; * # % % * ; 2 w d c b m b N Z k.k.",
"k.k.u.S F F F F N v g d p w w u p d g v N D G G G D u.k.k.",
"k.k.k.1.J K P I P H F A m m b m N A G H K I K K J 1.k.k.k.",
"k.k.k.k.;.Y R R R R R Y Y I I P Y Y R R E R T Y ;.k.k.k.k.",
"k.k.k.k.k.2.W W ^ ^ ^ ^ ^ ! ! ! ! ! ^ ^ ^ W W 2.k.k.k.k.k.",
"k.k.k.k.k.k.g.%./ ( ) ) ) ) ) ) ) ) | / / %.g.k.k.k.k.k.k.",
"k.k.k.k.k.k.k.k.f.:.| | ....| | | |  .:.f.k.k.k.k.k.k.k.k.",
"k.k.k.k.k.k.k.k.k.k.j.h.d.s.a.s.d.h.j.k.k.k.k.k.k.k.k.k.k."
};
