/* XPM */
static char *_____________[] = {
/* columns rows colors chars-per-pixel */
"29 28 147 2",
"   c #011529",
".  c #02162A",
"X  c #03172B",
"o  c #01172C",
"O  c #01182D",
"+  c #01192E",
"@  c #04182C",
"#  c #05192C",
"$  c #071B2E",
"%  c #081B2F",
"&  c #091C30",
"*  c #0B1E31",
"=  c #022136",
"-  c #0D2033",
";  c #0E2134",
":  c #0F2235",
">  c #02243A",
",  c #02293E",
"<  c #122537",
"1  c #15273A",
"2  c #16283B",
"3  c #17293B",
"4  c #192B3D",
"5  c #1B2D3F",
"6  c #032F44",
"7  c #043045",
"8  c #04344B",
"9  c #05354C",
"0  c #1E3041",
"q  c #1F3142",
"w  c #053C52",
"e  c #053E54",
"r  c #203143",
"t  c #223345",
"y  c #233446",
"u  c #263748",
"i  c #273849",
"p  c #293A4B",
"a  c #2A3B4B",
"s  c #2C3C4D",
"d  c #2E3E4F",
"f  c #07455C",
"g  c #07465E",
"h  c #314151",
"j  c #324252",
"k  c #334353",
"l  c #344454",
"z  c #374756",
"x  c #3B4A5A",
"c  c #3C4B5B",
"v  c #3D4C5B",
"b  c #3E4D5C",
"n  c #3F4E5D",
"m  c #084860",
"M  c #425160",
"N  c #435363",
"B  c #455362",
"V  c #465463",
"C  c #475564",
"Z  c #4B5967",
"A  c #4C5A68",
"S  c #4E5C6A",
"D  c #4F5D6A",
"F  c #505D6B",
"G  c #515E6C",
"H  c #53606E",
"J  c #54616F",
"K  c #576471",
"L  c #586572",
"P  c #596673",
"I  c #5B6A77",
"U  c #5E6A77",
"Y  c #5F6B78",
"T  c #606C79",
"R  c #616D7A",
"E  c #64707C",
"W  c #66727E",
"Q  c #68747F",
"!  c #167995",
"~  c #6D7884",
"^  c #6C7985",
"/  c #6E7984",
"(  c #18809C",
")  c #19829E",
"_  c #1884A1",
"`  c #1C8CA7",
"'  c #1B8DAA",
"]  c #1F9BB9",
"[  c #2A8EA8",
"{  c #318FA9",
"}  c #269FBB",
"|  c #269FBC",
" . c #46A4BC",
".. c #20A2C0",
"X. c #21A3C2",
"o. c #21A4C3",
"O. c #28A4C0",
"+. c #28A5C1",
"@. c #29A5C1",
"#. c #2AA7C4",
"$. c #22A8C7",
"%. c #2BA9C6",
"&. c #23ABC9",
"*. c #23ACCA",
"=. c #23ADCB",
"-. c #2EABC8",
";. c #2DADCB",
":. c #2DB0CD",
">. c #3EB4CE",
",. c #25B1D0",
"<. c #25B3D2",
"1. c #25B5D4",
"2. c #27B8D8",
"3. c #27BBDB",
"4. c #2FBDDB",
"5. c #28BEDE",
"6. c #29BEDE",
"7. c #2ABEDE",
"8. c #2DBEDD",
"9. c #2EBFDE",
"0. c #30B4D1",
"q. c #30B6D3",
"w. c #33B6D3",
"e. c #30B6D4",
"r. c #38B6D3",
"t. c #30B8D5",
"y. c #30B9D7",
"u. c #31BEDC",
"i. c #3BBCD9",
"p. c #4AACC3",
"a. c #41B1CB",
"s. c #4CB7D0",
"d. c #43B8D2",
"f. c #4BBAD4",
"g. c #41BFDB",
"h. c #46BDD8",
"j. c #2FC0DF",
"k. c #31C0DE",
"l. c #31C0DF",
"z. c #32C0DF",
"x. c #33C1DF",
"c. c #34C1DF",
"v. c #3EC0DC",
"b. c #35C2E0",
"n. c #36C2E0",
"m. c #37C2E0",
"M. c None",
/* pixels */
"M.M.M.M.M.M.M.M.M.n.8.t.;.+.} +.;.t.8.n.M.M.M.M.M.M.M.M.M.",
"M.M.M.M.M.M.M.j.q.` O               O ' e.8.M.M.M.M.M.M.M.",
"M.M.M.M.M.n.y.)                           ) y.n.M.M.M.M.M.",
"M.M.M.M.z.%.O                               O %.z.M.M.M.M.",
"M.M.M.z.|                                       O.u.M.M.M.",
"M.M.n.#.                                          O.n.M.M.",
"M.6.e.o                                           O e.6.M.",
"M.6.!                                               ! 6.M.",
"6.;.                                                  0.8.",
"z.)             o =                   = o             ! b.",
"4.            O _ ..>               > .._ o             8.",
"q.          O ' 5.5.X.,           , ..5.5.' +           0.",
"%.          w 5.5.5.5.$.,       , &.5.5.5.5.w           %.",
"O.            f 2.5.5.5.&.6   6 =.5.5.5.2.f             O.",
"O.# # # # # O   f 2.5.5.5.=.m =.5.5.6.2.f   O # # # # # O.",
"-.; ; ; ; * % #   w 1.5.5.5.5.5.5.6.1.w   # & & ; ; ; ; -.",
"w.3 3 3 3 < * & #   w <.j.5.5.5.5.<.w   # % ; < 3 3 3 2 e.",
"u.q r r q 5 1 ; $ . . 8 ,.5.5.5.,.8   # $ ; 3 5 q q q q u.",
"z.[ p a p u q 3 ; $ # . 8 =.j.=.8 . O $ ; 3 q y p a p [ z.",
"6.r.j j j j s y 5 : % # . 7 ] 7 . O % < 4 y s j k k j r.6.",
"M.6.{ v c v x l a r 3 ; % % # % - ; 3 q p k x v v c { 6.M.",
"M.6.i.N V C C B n z d i y q r r y i d z n V C V V V i.6.M.",
"M.M.n.>.A S F G F Z C M b v c c v M C Z S G F S A >.n.M.M.",
"M.M.M.z.a.J K L L L K J J F F F J J K L P L K J a.z.M.M.M.",
"M.M.M.M.c.d.I U T T R T T T T T Y Y T T T U I d.c.M.M.M.M.",
"M.M.M.M.M.n.v. .E E E ~ Q Q Q Q Q Q Q Q E  .v.n.M.M.M.M.M.",
"M.M.M.M.M.M.M.j.g.p.^ ^ / / / ^ / ^ ^ p.g.j.M.M.M.M.M.M.M.",
"M.M.M.M.M.M.M.M.M.m.z.v.h.f.s.f.h.v.z.n.M.M.M.M.M.M.M.M.M."
};
