/* XPM */
static char *arrowdown[] = {
/* columns rows colors chars-per-pixel */
"29 28 51 1 ",
"  c #011529",
". c #01172C",
"X c #01182D",
"o c #01192E",
"O c #022136",
"+ c #02243A",
"@ c #02293E",
"# c #032F44",
"$ c #043249",
"% c #04344B",
"& c #053C52",
"* c #053E54",
"= c #073E55",
"- c #093F56",
"; c #06445B",
": c #07465E",
"> c #084860",
", c #0F5066",
"< c #236C84",
"1 c #226F87",
"2 c #28778E",
"3 c #297890",
"4 c #2C7D95",
"5 c #307F96",
"6 c #2F8299",
"7 c #39869D",
"8 c #1884A1",
"9 c #1B8DAA",
"0 c #1E9BB9",
"q c #3B8FA6",
"w c #4795AA",
"e c #489AB0",
"r c #4F9CB0",
"t c #47A0B6",
"y c #50A5BA",
"u c #20A2C0",
"i c #21A3C2",
"p c #21A4C3",
"a c #22A8C7",
"s c #23ABC9",
"d c #23ACCA",
"f c #23ADCB",
"g c #25B1D0",
"h c #25B3D2",
"j c #25B5D4",
"k c #27B8D8",
"l c #27BBDB",
"z c #28BEDE",
"x c #67B3C6",
"c c #75BBCC",
"v c None",
/* pixels */
"vvvvvvvvvvcr73127rcvvvvvvvvvv",
"vvvvvvvve,X       X,evvvvvvvv",
"vvvvvvy-             -yvvvvvv",
"vvvvv6X               X6vvvvv",
"vvvv1                   1vvvv",
"vvv4                     4vvv",
"vvt.                     .tvv",
"vv$                       $vv",
"vq                         qv",
"v-       O         O.      *v",
"x      X8i+       +i8X      x",
"w     X9zzi@     @izz9X     w",
"5     *lzzza@   @azzzl*     5",
"2      :kzzzs# #szzzl:      2",
"2       ;kzzzf>fzzzk;       2",
"5        &jzzzzzzzh&        5",
"w         &hzzzzzh&         w",
"x          %hzzzh%          x",
"v*          $fzf$          -v",
"vq           #0#           qv",
"vv$                       $vv",
"vvt.                     .tvv",
"vvv4                     4vvv",
"vvvv1                   1vvvv",
"vvvvv6X               X6vvvvv",
"vvvvvvy-             -yvvvvvv",
"vvvvvvvve,X       X,evvvvvvvv",
"vvvvvvvvvvcr73<37rcvvvvvvvvvv"
};
