/* XPM */
static char *arrowdownoff[] = {
/* columns rows colors chars-per-pixel */
"29 28 55 1 ",
"  c #00050A",
". c #00050B",
"X c #00060B",
"o c #00060C",
"O c #00070C",
"+ c #01090E",
"@ c #01090F",
"# c #010A10",
"$ c #010C11",
"% c #010C12",
"& c #010D13",
"* c #010F15",
"= c #011015",
"- c #021117",
"; c #021218",
": c #062027",
"> c #062128",
", c #06222A",
"< c #07232B",
"1 c #07242B",
"2 c #08262E",
"3 c #082931",
"4 c #082A31",
"5 c #0A2A31",
"6 c #082A32",
"7 c #092B33",
"8 c #0A2A32",
"9 c #0B2B32",
"0 c #092C33",
"q c #092C34",
"w c #092D35",
"e c #0B2C34",
"r c #0B2D34",
"t c #092E36",
"y c #0A2E36",
"u c #0B2E36",
"i c #0A2F37",
"p c #0C2E35",
"a c #0C2E36",
"s c #0A3038",
"d c #0A3039",
"f c #0A3139",
"g c #0B323A",
"h c #0B333B",
"j c #0C3038",
"k c #0D3039",
"l c #0D3139",
"z c #0D323A",
"x c #0D333B",
"c c #0D343D",
"v c #0E343C",
"b c #0E343D",
"n c #0D353E",
"m c #0F363E",
"M c None",
/* pixels */
"MMMMMMMMMvvvzrerkzvmMMMMMMMMM",
"MMMMMMMvz3oXXXooXXo1xnMMMMMMM",
"MMMMMvz1oXXXXXooXXXXo<zvMMMMM",
"MMMMvaoXXXXXXXXXXXXXoooavMMMM",
"MMMz8oXXXXXXXXXXXXXXXXXX8xMMM",
"MMvrXXXXXXXXXXXXXXXXXXXXXavMM",
"MgzoXXXXXXXXXXXXXXXXXXXXXXzgM",
"Mg:XXXXXXXXXXXXXXXXXXXXXXX:gM",
"gaXXXXXoXXXXXXXXoooooXXXXXXaz",
"z:..XXXoX+.X.......oXX..XXX:z",
"aX....oo,3#X......@q,oo.X.  a",
"rX....o1gs3#.....#3ds<oX .XXa",
"5X    $rddsq+XXX#esdgs$     0",
"8X    X-sddd8$X+qdsdr-X     5",
"5   . ..-ssdse-0ssss;X      8",
"5   .....*tssssgsgr$XX      8",
"rX..    ..*rgsssdt*........ r",
"aXXX.......#rgsgs*........  a",
"z:XX......XX*rgw%.......X.X,z",
"zaXXXXXXXXXXo#3%.ooXXXXXXXXaz",
"Mg:XXXXXXXXXXXXXXXXXXXXXXX:gM",
"MzzXXXXXXXXXXXXXXXXXXXXXXozgM",
"MMvrXXXXXXXXXXXXXXXXXXXXorvMM",
"MMMz5XXXXXXXXXXXXXXXXXXX8xMMM",
"MMMMvaoooXXXXXXXXXXXXXoavMMMM",
"MMMMMvz<XXXXXXXXXXXXo<zvMMMMM",
"MMMMMMMvz3oXoXooXoX1zvMMMMMMM",
"MMMMMMMMMvvvzrrrzxvmMMMMMMMMM"
};
