/* XPM */
static char *arrowupoff[] = {
/* columns rows colors chars-per-pixel */
"29 28 55 1 ",
"  c #00050A",
". c #00050B",
"X c #00060B",
"o c #00060C",
"O c #00070C",
"+ c #01090E",
"@ c #01090F",
"# c #010A10",
"$ c #010C11",
"% c #010C12",
"& c #010D13",
"* c #010F15",
"= c #011015",
"- c #021117",
"; c #021218",
": c #062027",
"> c #062128",
", c #06222A",
"< c #07232B",
"1 c #07242B",
"2 c #08262E",
"3 c #082931",
"4 c #082A31",
"5 c #0A2A31",
"6 c #082A32",
"7 c #092B33",
"8 c #0A2A32",
"9 c #0B2B32",
"0 c #092C33",
"q c #092C34",
"w c #092D35",
"e c #0B2C34",
"r c #0B2D34",
"t c #092E36",
"y c #0A2E36",
"u c #0B2E36",
"i c #0A2F37",
"p c #0C2E35",
"a c #0C2E36",
"s c #0A3038",
"d c #0A3039",
"f c #0A3139",
"g c #0B323A",
"h c #0B333B",
"j c #0C3038",
"k c #0D3039",
"l c #0D3139",
"z c #0D323A",
"x c #0D333B",
"c c #0D343D",
"v c #0E343C",
"b c #0E343D",
"n c #0D353E",
"m c #0F363E",
"M c None",
/* pixels */
"MMMMMMMMMvvvzrerkzvvMMMMMMMMM",
"MMMMMMMvz3oXXXooXXo3bvMMMMMMM",
"MMMMMvz1oXXXXXooXXXXX,zbMMMMM",
"MMMMvaoXXXXXXXXXXXXXXXoavMMMM",
"MMMz8oXXXXXXXXXXXXXXXXXX8bMMM",
"MMvrXXXXXXXXXXXXXXXXXXXXXevMM",
"MgzoXXXXXXXXXXXXXXXXXXXXXXzgM",
"Mg:XXXXXXXXXXXXXXXXXXXXXXX:gM",
"gaXoXoXoXXoXX%3%ooXoXXoXXXXaz",
"z: . . .XX..%egr%.X . .. XX:z",
"kX ...  X .*tdddd%  ....  XXr",
"a         *rgddddr*       XXa",
"8       o=tdddddddr*        8",
"8X      ;rdddq;qddgd*       8",
"5     X;rgdd8%X%8dddd=X     8",
"8    X*dddg8@   %8dddg*     8",
"rX    o<gd3%     %3dd,oX    a",
"aX X  oo,8%   ..  %8,X X    k",
"z:XX.  .XoXX .. ...oo ..X X,z",
"zaXXoXXoXXXX..oX..oXXXXoXXXag",
"Mg:XXXXXXXXXXXXXXXXXXXXXXX:gM",
"MgzoXXXXXXXXXXXXXXXXXXXXXXzgM",
"MMbrXXXXXXXXXXXXXXXXXXXXXevMM",
"MMMz8XXXXXXXXXXXXXXXXXXX8bMMM",
"MMMMvaoooXXXXXXXXXXXXXoavMMMM",
"MMMMMvz<XXXXXXXXXXXXo<zvMMMMM",
"MMMMMMMvz8oXoXooooo2zvMMMMMMM",
"MMMMMMMMMvvxzrrrzvvvMMMMMMMMM"
};
