/* XPM */
static char *_____________[] = {
/* columns rows colors chars-per-pixel */
"160 40 57 1",
"  c #141C1F",
". c #141B21",
"X c #172729",
"o c #19272A",
"O c #1C2B2E",
"+ c #1D2F32",
"@ c #1E3135",
"# c #1F3438",
"$ c #3E2428",
"% c #202E32",
"& c #203336",
"* c #213539",
"= c #23383B",
"- c #422427",
"; c #422529",
": c #462A2E",
"> c #482C2F",
", c #462C31",
"< c #492E33",
"1 c #4B3236",
"2 c #4D343A",
"3 c #4F383E",
"4 c #51363B",
"5 c #513A3F",
"6 c #533D42",
"7 c #564146",
"8 c #584247",
"9 c #574348",
"0 c #59464B",
"q c #5A484E",
"w c #5D4C53",
"e c #5F5357",
"r c #615256",
"t c #63555A",
"y c #64585D",
"u c #685B5E",
"i c #665C62",
"p c #695D62",
"a c #6A6466",
"s c #6F6B70",
"d c #737377",
"f c #74757A",
"g c #75797E",
"h c #787D82",
"j c #7C838B",
"k c #7D898F",
"l c #7F8F94",
"z c #808890",
"x c #809196",
"c c #819498",
"v c #879FA4",
"b c #88A5AC",
"n c #8EAEB3",
"m c #8EB4BA",
"M c #91B6BD",
"N c #95BFC6",
"B c None",
/* pixels */
"BBBBBBBBBBBBBBBBBBBBBBBBBBBBBBBBBBBBBBBBBBBBBBBBBBBBBBBBBBBBBBBBBBBBBBBBBBBBBBBBBBBBBBBBBBBBBBBBBBBBBBBBBBBBBBBBBBBBBBBBBBBBBBBBBBBBBBBBBBBBBBBBBBBBBBBBBBBBBBBB",
"BBBBBBBBBBBBBBBBBBBBBBBBBBBBBBBBBBBBBBBBBBBBBBBBBBBBBBBBBBBBBBBBBBBBBBBBBBBBBBBBBBBBBBBBBBBBBBBBBBBBBBBBBBBBBBBBBBBBBBBBBBBBBBBBBBBBBBBBBBBBBBBBBBBBBBBBBBBBBBBB",
"BBBBBBBBBBBBBBBBBBBBBBBBBBBBBBBBBBBBBBBBBBBBBBBBBBBBBBBBBBBBBBBBBBBBBBBBBBBBBBBBBBBBBBBBBBBBBBBBBBBBBBBBBBBBBBBBBBBBBBBBBBBBBBBBBBBBBBBBBBBBBBBBBBBBBBBBBBBBBBBB",
"BBBBBBBBBBBBBBBBBBBBBBBBBBBBBBBBBBBBBBBBBBBBBBBBBBBBBBBBBBBBBBBBBBBBBBBBBBBBBBBBBBBBBBBBBBBBBBBBBBBBBBBBBBBBBBBBBBBBBBBBBBBBBBBBBBBBBBBBBBBBBBBBBBBBBBBBBBBBBBBB",
"BBBBBBBBBBBBBBBBBBBBBBBBBBBBBBBBBBBBBBBBBBBBBBBBBBBBBBBBBBBBBBBBBBBBBBBBBBBBBBBBBBBBBBBBBBBBBBBBBBBBBBBBBBBBBBBBBBBBBBBBBBBBBBBBBBBBBBBBBBBBBBBBBBBBBBBBBBBBBBBB",
"BBBBB1111<<1<11<<<<<<<<<<,,<,>:,,:,,<<<>,::::,::<:,,,,,,,><,<<1>,<,<,<:<1,,,1,<<<111113>111111<1112<1222122241322244243233444555557677078888q000qqqq8rkzjzjBBBBB",
"BBBBB5535443333333333222222212221213111111111111112111112211111112111313222222232223535335333635536666666757776677667799788900qqqqqweeeytttuuuiiiipptsMmnMbBBBBB",
"BBBBB;:;:;;-;;--;;-;-;;-----;--$$;;;$$$$$;;;;;;;$;$;$;;;;;$;$$;;$$;;;$;;;$;;;;;;:;$$:$$$-;;;;;;:;::;::::>;:>:;:>;:::;>:>::1::<><1>111>1141442242421415uiyarBBBBB",
"BBBBBO+++O+OO+++++++++++++O+++++@+@@@+@@+++++@+@@+++++@@@@%%+&+++++@+++@@+++++++++++@O@@+@@+++++@O@+++++O+%OO+O++O+O+O+OOOOOOOOOXX+X+XXXXXXXXXXXooooXX     BBBBB",
"BBBBB&&#####@@@@+&@&@&@###@#####=#@@@@#@####@@#@#@#@=#&&@&&&&#&&&&&&&&&=&#&&&&&&=@=@@@=&##@@&&&#&&&&@#&&&&&&@=&&&&&&&&&&&&&&&&&&##@@@&&@#@#@###+&&#+@@&%+&%BBBBB",
"BBBBB&&#@@@##@@@##&@@@&@@#+#&@@#@@#@@@@#@#@#@#@#@@@#@@#+&@&&@@&@&&&&@@@&@@@#@##@@=@@&@&@@@@@@@&&@&&#@&@@@#&@@@&@@&&&@@@#&#@&@@&&@@#@@@@&##@@+#+##%#%@@+&O@%BBBBB",
"BBBBB%&&#@#@&@#@&+@@&&&@+##+@@@#@#@@@@@#@@@@@@@##@@@+=+=&&+&@@@@&&@@@@&&&@@@@@@&@@@@&@@@@@@=@@@@@@@&&&@@@@@@@#@@&@@&#@@&&#&@&&@#@@@@@@&&#+@#+###+#+&@@@%&&&BBBBB",
"BBBBB&#+@@@@&@&@&&@&@@@@@@@@@@&&@@@@@@@@@#@@@@@@&&@@@&@@+@+#&&@@&@@@&&&&+##@@@&@@@@=@@@@@@@@#@@#&@@@@@@#@&@@&&&@@@&+@&&@@@@@#@@@@@@@@+@@+@@+#+#+#+#+##&%+%+BBBBB",
"BBBBB%@#@@#@@##@&&@&@@@#&++@@@@@@@@@@@@@@@@@@@@@@@@@@@@@&@#&&+@@&&@@@#&+#+&+&#&@@@@@@@@@@@@@@@#@@&@@#@@@+@@@@@@@&@&&@@@@@#@@@&@@@@@@+@@@#@@@+++#+#+##+&O+@&BBBBB",
"BBBBB%&+@@@@@@@@@@@@@@@@@+@@@@@@@@@@@@@@@@@@@@@@@@@@@@@@@@@+&@@@@@@@+@#++#+@@@@@@@@@@@@@@@@@@@@@@@@@@@@@@@@@@@@@@@@@@@@@@@@@@@@@@+@@@+@+@@@@+#+##@+++O&@+++BBBBB",
"BBBBB+##@@@@@+@@@@@@@@@@@@@@@@@@@@@@@@@@@@@@@@@@@@@@@@@@@@@@@@@@@@@@+=+#+@@@@@@@@@@@@@@@@@@@@@@@@@@@@@@@@@@@@@@@@@@@@@@@@@@@@@@@+@@@+@+@@@@@#+#++##+#@@@++OBBBBB",
"BBBBB+#@#+@+#+#+@@@@@@+@@+@@+@@@@@@+@@@@@+@++@@+@@@@@@@+@+#++@++@@@@@@@@@+@@@@@@@@@@@+@@@@@@@@@@@@++#++#++++#+#+@+@&@@#&@@&@&@@@##+++++#+@@@##X++#+#+@@+@@%BBBBB",
"BBBBB%@++@@#+#+#@@@+@+@+@@@@@@@@@+@@@@@+@@@@@@@@@@@@@+@@@@+@#@#@@@@@@@+@@+@@@@@@@@@@@@@@@@@@@@@@@@&#++#+@#&#++#*@@+&&@@&&@@++&@@+#+###@+++++X###++#++@+++@OBBBBB",
"BBBBB%+##+#+@@@+@@++@@@+@+@@+@@@@@@@@++@@@@@+@@@@+@@+@+@@++@+#+#@@@@@@@@@++@@#@@#@@@@@@@@@@@@@@@@@%###+&*&+&&&#++&=+@@@@@&&&@&@@#++#+#+@@+@+X#++#++#@@+@++%BBBBB",
"BBBBB@##@@+#+@@+@@@@+@@@@@@@@@@@@@@@+@@@@+@@@@@@@@@@@@@@@@#@@+#+@@@@@+@@@@@@@@@@@@@@@+@@@@@@@@@@@&+##%**%#&+##%*&&&&@#@@@&&&&@@@++##++++@@@@#####++#++@@+@%BBBBB",
"BBBBB+#+@+@@+#+#@+@@@@@@+@@@@@@@@@@+@@+#@@@@@+@@@@+@@+@@@@@+++##@@@@@@@@@@@@@@@@@+@@@@@@@@@@@@@@@@@@#+@@@#++*@@+&@+#+#@@@@@@@@@@#+###+#+@@+++##+++#++@@++++BBBBB",
"BBBBB+#+@@@@#+#+@@+@@@@@@@@@@@@@+#+#@@@++@@@@@@@@@@@@+@+@@@@#+#+@@@@@@@@@@@@@@@@@@@@@@@@@@@@@@@@+&@@+#@@@#*@@@*#+&@&&+@@@@@@@@@@++++#++#@#+##+++++++@@++++&BBBBB",
"BBBBB#@@+@@++##++@@@+@@+@+@@@@@X+++@+@@@@@@@@@++@++@@@@@@@@@##*+@@@@@@@@@@@@@@@@@@@@@@@@@@@@@@@@@@@@#++#+###+@+&&#++@@@+@@@@@@@@+#++++#++#X+++#++@#+@+@@+OOBBBBB",
"BBBBB@@@@@@@+#++@@@@@@@@@@@@@@###+#@@@@+@@@+@@@@@@@@@@@@@@@@+#+#@@O@@@@@@@@@@@@@@@@@@@@@@@@@@@@@@@@@%#++##++@+#+&+#&@@@@@@@@@@@@#+###+++@@##+#+#@@@@@@@@O&&BBBBB",
"BBBBB+&##+++#++#@@@@@@@@+@@@@@@@@@@+@@+#@@@@@@@@@+@@@@@@#+#%#+#+@@@@@@@@@@@@@@@@@@@@@@@@@@@@@@@@@@@@#+#++#++#++&#+#+#+%&@@@@@@++*+&%#+#++@@+@#@@#+++#@++%&OBBBBB",
"BBBBB#&++#&##&&&@#@@@@@@#@@#@#@@@&@#@##&#@@&@@@#@@#@@@@@&++#+#+#@@@@=@@@@@@@@@@@@@@@#@@@@@@@@&@@@@@&#@@#&+&##&#&%#&#%#*+@@@@@@##+%#+#&+#@#@@@@@@+##++@+@O@%BBBBB",
"BBBBB&&&+&&+#&#+##@@@##@@@#@@@@##@@#&&@+@@@#@&&@@@@@@@#@###&**%%@&@@@@@=@#@#=@@@@@@@@#@@=@#@#@&@@@&@#&#@###+#&#+&#%*##**@@@#&++%&&&++%#+@@@@#@@###+#@+@@&&+BBBBB",
"BBBBB%&##&##+&@#@##@@@#+@@@@@@@#@&@@@@&##&&@@#@@#@#@@#@@&&++#+##&@&&@@@@@@@@@&@@@@@@@@#@@@@@@&@@&@@#+@@&&&+#+&####**+#+#@@@@##&*&&+#&#+#@@@@#@@@++#+@@@+O&&BBBBB",
"BBBBB&&###+#@###@@@#######@@#@@@##@#####@&###@#&@@@@#@@#%###*+#*@&@@@@@@#@@@@@@@@@@@=@@#@@@@@@@@+##%&#+*###&*++*+&#+&&&&+#*+####+#&+#@@@@##+&#@#@&=+@@@+&@OBBBBB",
"BBBBB&*&##*&&&&&##&###########=#*&&*&&&&&&*&@=&#&&=###@#**&**&**&&@=@=@@==@=@==@==@@=@#@@==@@=&@*&**&*****&&&&**&&&&&&&&**%*&%*+#&&#&##&##@#&@#@@&+&@@+@@&+BBBBB",
"BBBBBOOOOO+@@+@+++++#++#++@@@@@@#@@@@@@@+##+@@@@@@#@@@@@&*%*%**+&@@@@@@@@@@@@@@@@@@@@@@@@@@@@+@+%#*&%*+%&%+*%*#+&+&%#++#+%%*++++@@@@O+%&+&O@++++++++++++O+OBBBBB",
"BBBBB&=#=*#*#&###################&######*#**#=###=&&=#===*******========@==@====#==#======@=====*****=***=**********************=&&&&*&&&&&&@@=@@=+=+&#+#*&BBBBB",
"BBBBBfcjlli6q0q0qq89999866666655533332232244241441214112112211211111<<<<1<<<<<<<<,<,,<<,,,,,,,,<,,,,,,,,,,,,,,,,<<,<:<::<:<<,><,,<<<<<<<<<<<1<<<1<11<111111BBBBB",
"BBBBBvNnmNgrppppppuuyytttrrrwwwqq0099886666666666656666666653646333362632223223222222<2221221<2<212<<2<12<<1111111<1111111111121122122311313232332322525453BBBBB",
"BBBBBafssdw57667766666666654522222211421121211111111111<2<<<1<<<<<<,,,<<,<<,<<,,,<<<<<<<,:,,,,<,,,,,,,,,,:,:,,,,,,,::,,:::<:::::>::::::<:><>:>:1<<:,:,><,<>BBBBB",
"BBBBBBBBBBBBBBBBBBBBBBBBBBBBBBBBBBBBBBBBBBBBBBBBBBBBBBBBBBBBBBBBBBBBBBBBBBBBBBBBBBBBBBBBBBBBBBBBBBBBBBBBBBBBBBBBBBBBBBBBBBBBBBBBBBBBBBBBBBBBBBBBBBBBBBBBBBBBBBBB",
"BBBBBBBBBBBBBBBBBBBBBBBBBBBBBBBBBBBBBBBBBBBBBBBBBBBBBBBBBBBBBBBBBBBBBBBBBBBBBBBBBBBBBBBBBBBBBBBBBBBBBBBBBBBBBBBBBBBBBBBBBBBBBBBBBBBBBBBBBBBBBBBBBBBBBBBBBBBBBBBB",
"BBBBBBBBBBBBBBBBBBBBBBBBBBBBBBBBBBBBBBBBBBBBBBBBBBBBBBBBBBBBBBBBBBBBBBBBBBBBBBBBBBBBBBBBBBBBBBBBBBBBBBBBBBBBBBBBBBBBBBBBBBBBBBBBBBBBBBBBBBBBBBBBBBBBBBBBBBBBBBBB",
"BBBBBBBBBBBBBBBBBBBBBBBBBBBBBBBBBBBBBBBBBBBBBBBBBBBBBBBBBBBBBBBBBBBBBBBBBBBBBBBBBBBBBBBBBBBBBBBBBBBBBBBBBBBBBBBBBBBBBBBBBBBBBBBBBBBBBBBBBBBBBBBBBBBBBBBBBBBBBBBB",
"BBBBBBBBBBBBBBBBBBBBBBBBBBBBBBBBBBBBBBBBBBBBBBBBBBBBBBBBBBBBBBBBBBBBBBBBBBBBBBBBBBBBBBBBBBBBBBBBBBBBBBBBBBBBBBBBBBBBBBBBBBBBBBBBBBBBBBBBBBBBBBBBBBBBBBBBBBBBBBBB"
};
