/* XPM */
static char *_____________[] = {
/* columns rows colors chars-per-pixel */
"160 40 60 1",
"  c #141C1E",
". c #141B20",
"X c #172729",
"o c #19272A",
"O c #1C2B2E",
"+ c #1D2F32",
"@ c #1E3135",
"# c #1F3438",
"$ c #202F33",
"% c #203336",
"& c #213539",
"* c #23383B",
"= c #253F44",
"- c #264145",
"; c #284347",
": c #274448",
"> c #29464B",
", c #2A494E",
"< c #2C4D52",
"1 c #2E5156",
"2 c #2F5359",
"3 c #305256",
"4 c #31555B",
"5 c #32595E",
"6 c #355C62",
"7 c #385F64",
"8 c #366066",
"9 c #386267",
"0 c #376368",
"q c #39656A",
"w c #3B686E",
"e c #3E6C73",
"r c #3F7377",
"t c #417276",
"y c #43757A",
"u c #44797E",
"i c #487B7E",
"p c #467C81",
"a c #497D81",
"s c #4A8385",
"d c #4F8A8E",
"f c #549296",
"g c #55969B",
"h c #589A9E",
"j c #5D9FA5",
"k c #5BA0A6",
"l c #5DA4A9",
"z c #5FA9AD",
"x c #60A3AA",
"c c #60ABAF",
"v c #62ADB1",
"b c #68B6BA",
"n c #69BBC1",
"m c #6DC1C5",
"M c #6FC6CD",
"N c #71C6CA",
"B c #73C9CE",
"V c #76CFD4",
"C c #77D0D6",
"Z c None",
/* pixels */
"ZZZZZZZZZZZZZZZZZZZZZZZZZZZZZZZZZZZZZZZZZZZZZZZZZZZZZZZZZZZZZZZZZZZZZZZZZZZZZZZZZZZZZZZZZZZZZZZZZZZZZZZZZZZZZZZZZZZZZZZZZZZZZZZZZZZZZZZZZZZZZZZZZZZZZZZZZZZZZZZZ",
"ZZZZZZZZZZZZZZZZZZZZZZZZZZZZZZZZZZZZZZZZZZZZZZZZZZZZZZZZZZZZZZZZZZZZZZZZZZZZZZZZZZZZZZZZZZZZZZZZZZZZZZZZZZZZZZZZZZZZZZZZZZZZZZZZZZZZZZZZZZZZZZZZZZZZZZZZZZZZZZZZ",
"ZZZZZZZZZZZZZZZZZZZZZZZZZZZZZZZZZZZZZZZZZZZZZZZZZZZZZZZZZZZZZZZZZZZZZZZZZZZZZZZZZZZZZZZZZZZZZZZZZZZZZZZZZZZZZZZZZZZZZZZZZZZZZZZZZZZZZZZZZZZZZZZZZZZZZZZZZZZZZZZZ",
"ZZZZZZZZZZZZZZZZZZZZZZZZZZZZZZZZZZZZZZZZZZZZZZZZZZZZZZZZZZZZZZZZZZZZZZZZZZZZZZZZZZZZZZZZZZZZZZZZZZZZZZZZZZZZZZZZZZZZZZZZZZZZZZZZZZZZZZZZZZZZZZZZZZZZZZZZZZZZZZZZ",
"ZZZZZZZZZZZZZZZZZZZZZZZZZZZZZZZZZZZZZZZZZZZZZZZZZZZZZZZZZZZZZZZZZZZZZZZZZZZZZZZZZZZZZZZZZZZZZZZZZZZZZZZZZZZZZZZZZZZZZZZZZZZZZZZZZZZZZZZZZZZZZZZZZZZZZZZZZZZZZZZZ",
"ZZZZZ<1<<<<<<<<1<<<<<<<,<<,<,,,,,,<,,,,,><>>,,>>,>,>,,,,>>,,,<,,<,,,<,,,,,<<<<<<,<1<333,11<1<1<11111112222214243344444444444455555779709990qqqqwwwww0ylxjzhZZZZZ",
"ZZZZZ564544452244222422111<21112111111<1<11111<111111111111111331111111122121223222454354444454555466766666886777878898q9q9qwwwwtqwtrrrryyiiipppppiptdNNmBnZZZZZ",
"ZZZZZ;:;;:;-;:;:;;::;-;-;;;=;=;====-=-=----=--------------=-----------:--;-;:;;:::--:::::::::>:>::>>>>::>>:>:>::::>::,:,,,,,,,,,<<,<<,13331333334444<6apiatZZZZZ",
"ZZZZZ++++++O+O@O++++++++++++++++@@+++@@++@@+++++@+++@@$$+@@+@++$+@+@@+@+++@@O@+++@+@++++@@++@@O@@+++++O@O$OO+++++O+O+O+OOOOOOOOOXOOOOXOXXXXXXXXXoooXoX     ZZZZZ",
"ZZZZZ%%#@@#@@@@@@%@@@@#@@@#@@###@#@#@#*###@#####@##@%&%&%%%$@*%%@%%%%%%*#@%%%%%%%*@@*%*%@@@*@%%#@%%%@@%%%%%%%&$%%%%%%%%%%%%%%%%%@##@%%%%@##@@##+%%%++%$@+%%ZZZZZ",
"ZZZZZ%%@@@@@@#@#@@@%@%%#@@@#@#@@@@#@#@@#@@@#@#@@@@@#@@%@@%%%@@%%@@%%@@@%@@#@#@#@@%@%@@@@@@@@@@%@#@%@%#@@@#%%@@@@%%@%@@@@%%%%@%%%@@@@@@@@@@@@@#+#%@%%@@%OO%OZZZZZ",
"ZZZZZ+%#@##@#@#@@@@@%%%@@@@@@@@##@@@@@@@#@@@@@+@#@@@%@@%%@@%@@@@%%@%$@@%%@@@@%@@%@@@@@@@@@@@@@%@@%@%%%@@@@#%@#%@%@@%#%%@%%%%%%@%@@@@@@%@@@#@#@##+#$$@@%%@%%ZZZZZ",
"ZZZZZ@#@@#@@&@%@%%%%@@@@@@@@#@@%@@@@@@@@@@#@@@###@@@@@@@@@@@@@@@%@@@@@@@@@@@@#@@@@@@@@@@@@@@#@@%%@@@@@@@@@@@@%@%$%@@@%%@@@@@%@@@@@@@@@@@@@#@+#++@+#+#@$++%@ZZZZZ",
"ZZZZZ@@@@@@@@@@@@%%%@@@@@+@@@@@@@@@@@#@#@@#+@#+#@@@@@%@@%@@@@@@@%%%@@@@%@@@@@%@%@@*@@@%@@@@@@@#@@%@@#@@@@%@@%@@@@@@%@@@#@@@@@%@@@#@@+++@@#@@+##++#+#@@@$%O@ZZZZZ",
"ZZZZZ+@@@@@@@@@@@@@@@@@@@@@@@@@@@@@@@@+#@#@@@+@@@@@@@@@@@@@@@@@+@@@@@@@@@@@@@@@@@@@@@@@@@@@@@@@@@@@@@@@@@+@@@@@@@@@@@@@@@@@@@@@@@+@@@+@@@+@@+#++@@@+#@@@+@+ZZZZZ",
"ZZZZZ@%@@@@@@@@@@@@@@@@@@@@@@@@@@@@@@@@@+@@+@+@@@@@@@@@@@@@@@@@@@@@@@@@@@@@@@@@@@@@@@@@@@@@@@@@@@@@@@@@#@@@@@@@@@@@@@@@@#@@@@@@@+@@@@@+@+@@@#+#+@@@@+@@++++ZZZZZ",
"ZZZZZ+#@+@+##+#+@@@@@@+@@+@@+@@@@+#@@@@@@+@++@@@@@@@@@@@+##++@+@@@@@@@+%@+@@@@@@@@@@@@@@@@@@@@@@@%@@#++#++#++#++@@@@@@%@%@@%@@@@+#+++++#+#++++##@@@@+@@++@+ZZZZZ",
"ZZZZZ+@@#@@++#+#@@@O@+@+++@@@@@@@@+@@@@@@+@@@@@@@@@@@@@+#++#@@@@@@@@@+@%@@@@@@@@@@@@@@@@@@@@@@@@@++@++#+##+###$#@@%%%%@%@@@$@@+@#++#+#+++++#+#X#+@+@@@+@@++ZZZZZ",
"ZZZZZ@#++#+#@@@+@@@+@@@+@@@@@+@@@@@@@@@@@+@@@@+@@+@@@@@@++++@@@@@@@@@@@@@++@@@@@@@@@@@@@@@@@@@@@%@$@###+#$$$+$##@%%%%@@@%%%%@%@@#+#+####+++#X#++@@@+@@@++++ZZZZZ",
"ZZZZZ+#+#+#+#+@@@@+@@@@@@@@@@@@@@+@@++@@+@@@@+#@@@@+@@+@+##@@+@@@@@++@@+@@@@@@#@@@@@@@@@@@@@@@#@%%@@@%+#$#+###$$%%$@@#@@@@%%%@@@+###++++##++##+#@+@@@++@+@%ZZZZZ",
"ZZZZZ@#++@@+#+#++@+@@@@@@@@@+@+@@+@@@+@@@@+@@@@@@@@+@@@@#+#+@@@@@@@@@@@@@@@@@@@@+@@@@@+@@@@@@@@@@@@@++###$#+$#$#$@@@@@@@@@@@@@@@+#++#++##+#+#+++++@+++@@++$ZZZZZ",
"ZZZZZ+@@@@+#+#+#@@@@+@@@@@@@@@@@@#@@@@@@@@@@@+@@+@@@+#@++###@@@@@@@@@@@@@@@@@@@@@@@@@@@@@@@@@@@@@@@@###++#$#####%@@@@@@@@@@@@@@@#++#++#$#++#X###@+@@@@@O++@ZZZZZ",
"ZZZZZ@@#+##++++++@@@@@@@@@@+@@+@+++@@@@@@@@@@@@@@++@#+@@+#+#@@@@@@@@@@@@@@@@++@+@@@@@@@@@@@@+@@@@@+@#++##+##$$O=@@@@@@++@@@@@@@@#+++#+@++++##o#o+#+@@+@@O@+ZZZZZ",
"ZZZZZ+#+#+@@#+##@@@@@@@@@@@@@@@@+@@@@@@@@@@@@+@+@@@@+#+#++#+@@@@@@+@@@@@@@@@@@@@@@@@@@@@@@@@@@@@+@@@$+#++#+#$+++@@@@@@@@@@@@@@@@++###+@++##+####+++@@@@@O@@ZZZZZ",
"ZZZZZ@@@+@@+#+++@@@@@@@@@+@@@@@@@@@@@@@@#@@@@@@@@@@@@@@@@@@@@@@@@@@@@@@@@@@@@@@@@@@@@#@@@@@@@@@@#+++#@@@@+#O++++++@+@%@$@@@@@@+@@$@@@$+@+@#+@@@@#@@@+@@++$+ZZZZZ",
"ZZZZZ#%+#+#@%%#%@#@@@@@#@@#@@@@@@%@@@@@#@@@@#@@@@@@@@@@@%@@@@@@@@@@@@@@@@*@@@@@@@@@@@#@@@#@@@#@%#%#%#@@@@@@=+#O=++=+%@%#@@@@@@#@%%$@@#@@#@@#@@@@+@@@@+++$@+ZZZZZ",
"ZZZZZ#%#%##@#%#%@@#@@@@@@@@@@@@#%@%@%@%@@%@%@%%@@@@@@@#@$#%@%@#%%@%%@@@@@@@@@@@@@@@@@@@@@@@@%@@@@#@@@&%@@%=+=+=+=+=+@@%%@@@@+#$%+%$@@@@@#+++@@@##@@@#+@++%@ZZZZZ",
"ZZZZZ@%%%%+#+%#+@#@@@#@##@#@#@@@@#@@@#@%@##%@@@@@#@###@@@#@#@%@%@%%@*@@@@@@@@*@@@@@@#@#@#@#@@%@@@%%@@@%@$+++++++$+%%#%@#@@@@%@%%%#@@%@@@##@#@@@@@@@@++#++@@ZZZZZ",
"ZZZZZ@%@##+#@@@#@@@%###@##@#@#####+%#@###%#@&#@%@@%%@@@#%%##%###%@@@@@@@@@@@@@@@#@@@@@@@##@*@@@@##$#####+++$++%+$$##%@%%@#%@%#@#@%#@@#@@+%#+@#@##%@@#@@@@@+ZZZZZ",
"ZZZZZ&*&#*%%&%&#&&%&############&%&&%%%%%%%&%%&%%&%%###&%&%%&%%%%%@*@**%@**@@**@**@****@@@@@*@*@%%%%%%%%=%=+$=@%$#=$%%%%$%%%%%#@%%%@%#@%#@%%%@#@@%@%@@@@@%+ZZZZZ",
"ZZZZZOOOoo+@++@++@++#++#++@+@@@@#+@#@@+#@@@%@@@#@%@@%%@@%%%%%$$%%@@@@@@+*++@@@@@@@@@@+@@@@@@@@@@@@$@%$@$$%+O$%O+$+++@@@@@$%@$@@@%++@++$$+%++@++@+++++++OO@@ZZZZZ",
"ZZZZZ&*#**#&&&#######################&####&&####*&&&&*&&*&&&&&******************@**#**#***@*#**#$=%%=%%=%$==+==@=++=&&%&&&&&%%%#&&&%&%&%%%%%%%%%%%%%@@@@@%%ZZZZZ",
"ZZZZZfvjlzp6wwqqqqqq0009776666555624444222142432143<21113<22<2<211<1<<<<<<<<<<<<<<<<<<,<,<<,<,,<,,<><><><,,<<,,<,,<,<>,,,,<,,,<,<,<,<<,<<<<<<<<<<<31<31<31,ZZZZZ",
"ZZZZZbCNNVgtaaaaaaiiuiyyyrteeeewwqqq00077796666666666666665656645544644422222112<112<112<111<<1<1<<11<111<<<<<11<1<1<<<111<13<11111222422233444444444444554ZZZZZ",
"ZZZZZsfddfe5868887666666665444422222133111111111<11<<1<<<<<<<<<<<<<,,<,<<<<<<<<<<,<,<,<,,,<>,<<,><><><>,,,,<,<>,,<,,<>,>>>,,>>>,,>>,>>,,,,,,,,,,,,,,,,,,,,,ZZZZZ",
"ZZZZZZZZZZZZZZZZZZZZZZZZZZZZZZZZZZZZZZZZZZZZZZZZZZZZZZZZZZZZZZZZZZZZZZZZZZZZZZZZZZZZZZZZZZZZZZZZZZZZZZZZZZZZZZZZZZZZZZZZZZZZZZZZZZZZZZZZZZZZZZZZZZZZZZZZZZZZZZZZ",
"ZZZZZZZZZZZZZZZZZZZZZZZZZZZZZZZZZZZZZZZZZZZZZZZZZZZZZZZZZZZZZZZZZZZZZZZZZZZZZZZZZZZZZZZZZZZZZZZZZZZZZZZZZZZZZZZZZZZZZZZZZZZZZZZZZZZZZZZZZZZZZZZZZZZZZZZZZZZZZZZZ",
"ZZZZZZZZZZZZZZZZZZZZZZZZZZZZZZZZZZZZZZZZZZZZZZZZZZZZZZZZZZZZZZZZZZZZZZZZZZZZZZZZZZZZZZZZZZZZZZZZZZZZZZZZZZZZZZZZZZZZZZZZZZZZZZZZZZZZZZZZZZZZZZZZZZZZZZZZZZZZZZZZ",
"ZZZZZZZZZZZZZZZZZZZZZZZZZZZZZZZZZZZZZZZZZZZZZZZZZZZZZZZZZZZZZZZZZZZZZZZZZZZZZZZZZZZZZZZZZZZZZZZZZZZZZZZZZZZZZZZZZZZZZZZZZZZZZZZZZZZZZZZZZZZZZZZZZZZZZZZZZZZZZZZZ",
"ZZZZZZZZZZZZZZZZZZZZZZZZZZZZZZZZZZZZZZZZZZZZZZZZZZZZZZZZZZZZZZZZZZZZZZZZZZZZZZZZZZZZZZZZZZZZZZZZZZZZZZZZZZZZZZZZZZZZZZZZZZZZZZZZZZZZZZZZZZZZZZZZZZZZZZZZZZZZZZZZ"
};
