/* XPM */
static char *_____________[] = {
/* columns rows colors chars-per-pixel */
"160 40 78 1",
"  c #0A0D0E",
". c #0D0F11",
"X c #0E1214",
"o c #0F1318",
"O c #111416",
"+ c #14171A",
"@ c #16191C",
"# c #191B1E",
"$ c #151C21",
"% c #1B1E22",
"& c #1D2024",
"* c #172729",
"= c #19272A",
"- c #1C2B2E",
"; c #1D2F32",
": c #1E3135",
"> c #1F3438",
", c #212425",
"< c #242629",
"1 c #26292C",
"2 c #282A2E",
"3 c #212F34",
"4 c #2B2E31",
"5 c #203236",
"6 c #2E3133",
"7 c #213539",
"8 c #23383B",
"9 c #323436",
"0 c #34373A",
"q c #35383B",
"w c #3A3C3E",
"e c #253F44",
"r c #3A3D40",
"t c #264145",
"y c #284247",
"u c #274448",
"i c #29464A",
"p c #2B494E",
"a c #3E4143",
"s c #2D4D52",
"d c #314E54",
"f c #2E5156",
"g c #2F5359",
"h c #315156",
"j c #31555A",
"k c #33595E",
"l c #355C62",
"z c #385E63",
"x c #366066",
"c c #396166",
"v c #376368",
"b c #3A656A",
"n c #3C686E",
"m c #3D6C73",
"M c #3F7377",
"N c #434446",
"B c #444749",
"V c #46484B",
"C c #406C71",
"Z c #417175",
"A c #43757A",
"S c #45797E",
"D c #487B7E",
"F c #467C81",
"G c #497D81",
"H c #4E868A",
"J c #538E92",
"K c #55969B",
"L c #5E9CA3",
"P c #5DA1A6",
"I c #5AA3A8",
"U c #62ADB1",
"Y c #67B4B8",
"T c #68B9BF",
"R c #6DC1C5",
"E c #6FC6CD",
"W c #71C6CA",
"Q c #76CFD4",
/* pixels */
"    ...O.OOOOOOOOOOOOOOOO.OOOOOOOOOOOOooOOOoOOOOOOoOoOOO+OOOOO++OOO@++@@+@O+++@+@+@@O@O+++++O++++++++o++$++$++++$+@++++++#++++@+++@+++@++++@@@@$++++++++++oooooo",
"  ...OO+++#############################$#$#%###$#$##$##*##*#*#&####*,,&&&&,,&&&,&,&&&%,&&&&&&&&&&&$&&&%=%%%%%%%%%%&&&&&&&&&&&&&&%,,%,,&&&&&,%,%&&&&%&&&%%%@@@o++",
"  XOO##,,,<,,<<,<<,,,<<<<<<<2<<<1<<<<<<<<-<<-<<<-,1<11,1111-<1<1<<11111312212222114-111111<13121111111144114211122222222222222221211<111242222222222222<<&%%#ooo",
"  O+#,<246999999999999999999999999699999699999900999999999qq99999qqqqqqwqqqqqqqqqqq9q0qqq000qq9q0qqq0000000q0r0rr99r000000000000qqqqqqqq00q00qqq000rr9r942<&%@oo",
"..O#,299waNNNNNNNNNNNNNNBVBNNVVBBaBaaBBaBNaBNaNaBaaaaBBaaVVaBNNNBBBaVVaVBVBBBVVVBBVNBNBBBBNBBBaVBBBBVBBBVVBVVBVVNVVVVVVVVVVVVVVVBBBVVVVVVVVVVVVVVVVVNBNarr42&%@o",
".O#,2addhhsssssfaNssddssddeprrdeiisppppippiipfpipssisppsiupppspipppppfppspssppsdpfhhfffpsfffffsfffffgggggghhjjhhjdjjjjgljjjjVzkkkzzzzzzcczcbCbbbnnnnlCLLLLJ4<%@+",
".O#,9kkjkjjjjjjjjjjjhjhjgdggggggfffffffffffsffffffffffffffffffhhffffffffshsggshjffjfjjfkjgjjjjkkllllzzlllllzzzlxzbzzzzzzzbbbbnnnnZnMMmMMAASSAFFFFFGGFGEERETr2,$+",
".#,20yyytuuttutteytteetteeeeeeeettttttttttttttetttttttttttttttttttttutuuttuuuuuuuuuuttuuiiuuuiiieeiiieiiiiiiiiiieedeedsppppdeddeppphpphhhhhjhhjhjdggdzFGFFCr4<%+",
"O#,2w;-;;;;-:-;;;:;:;;;;;;;;;;;;:;:::;;:;:;;;;;:;:;;:;;5;5;55:;5:::;:;;;::;:;;:-:;;:;;:;;:;;;;-;;;;;;;;;;;;--;-:-;;-;--;3--;----*;*---**********<=&==%$$$$$r41%@",
"O#,9a855555::::::::::5:>>5;>>5e5:>;>:>>>>>>>>>>>::>:8:5555555555;5;8555855755555>>555::8:::8:8::7>55::55555375555555555:33553555:>::::::>:::>>>;e-33;>>>;;5Vr1%+",
".#,9N55::::>>:>::::5:55:;;5;;>;;>:>::>::::>:>::>::::::5:5:55::5:::>:;855:::::>::5:55:55::::::8:8>5>>>::55:55::>::555::>>5>>>>>5>>;;>:::::>::;>>>;>>3>;>3;53B92%@",
"O#,9N555>>::>::5::::557:5>>>5>;>:>::::::::::::::>>:::8:55::::::::55:;;::7:::::5::5555:::::::::::;;>357:::::::7:::::7:5:535;555>;::>::::8:::>;>;>>>>3;>;3535Vr4%@",
"O#<9N4:::::57::::5:::::::::5>;55:::>:::::::::::::>:::5::::::5:::55:8:::5:::::7:::555::::::5:8;:555:::::::::::::55:5:555::55;;>>;::::;:::>:::>;>;;>;>>;3;;35Vq2&@",
"O#,9N45::::::5:::::5::::5:5;;>>5:::::>:::>::::::>;>::::::::;;::::5::::::::::>:7:::::5:::::::;8>;5;:::::::5::5:::5:5:::::::5>53;>:::::;::::::;;;>;;;>>;;;:;5Vq1%@",
"O#,9N445:::::::::::::;::::>;>;;>:::::::::::;:::;;:::::::::::::::::::::::::::::::::::::::::::;5;>::::::::::::::::::::::::::;>>;>;::;:;::;::>>;>>;;;>>;>;;-:;Vq2&@",
"O#<9N433::::::::::::::::::;>;;>;::::::::::::;:::>;::::::::::::::::::::::::::::::::::::::::::>;>;:::::::>:::::::::::::::;::>;;>;>;::::;:;:;:;>>;;>>;;3:>;::;Vq2&@",
"O#<9N55;::>;5;;>::::::;:;;::;::::::::::::;::;:::>;::::;::;::::::;:::::;::;:::::::::::;:::;:;::>;::::;;;>;>>;;>>;::::::5:5::::::;;>;;;;;;>>;;;;>;::;:;:;;;;3Vr2%@",
"O#<9N5>;:;;>>;>;::;:;::;;::::::::::;;:;:::;:::::;:::;:;:::;:::::;:::::;::::::::::::::::::58;::;5::::>>;;5;>;;;>>:::555:5::::::::>;>;>>;>;;;;>;;;;:::::::;33V02&@",
"O#<9N3>>:>>;;>;>::;;:::;:::::::::::::;::::::::;:::;::;::;;::::::::::::55::::::::::::::::>::58:5>:555>3;5553535>;:555::::5555::::;>;;;;;;;;>:;;>;;::::::;;;3V0<%@",
"O#<9N55;>;::;;>;:::::::::::::;:::;::::::;:::::::;:::::::::::::::::::;;:5:::::::::::::::::::;;:::3:;5;>>53>;>>>33553:::::::555:::::>>;>>;>>;;;>>;;:::;::;;33Vr2%$",
"O+<9N75;;;::>;>;::::;:::;>;:;;::::;::::::::;>;::>::::::::;:::::::::::::::::::::::;::;:::;>;>::::::::>;>5>;>>>>;>;5::::::::::::::>;>>>;>;;>>>;;;>:;:;:;;:;;3V02%+",
"O#<9N555>;>:;>;>::::::::>;>:::;:::::::::::::;>::;>::::;::::::::::5:5::5:::::::::::::::::::>:;:::::::>;>;;>3;;>3>:::::::::;::::::;>;;;;;>;>;;;>;;;;::;::;;>3Vq2%$",
"O#<9N5:;>;;;;;;;;::::;::;:;:;>>;;:;::;::;:;;>::::;::;:::::::::::::::55;5::::;;::::::::::>;>::;;:::::;>>;;>>;>;3>::5:::::;:::::::>;>;;>;;;;;>;>;>:;::::3;;;5Vq2%+",
"O#,9N5:>;>::>;>;;:;:::::::>;>;>;::::::::::::;::;:::::::::::::::::::;5;5;::::::::::::::::::;:;>::::;:3>;>;>;>;>;;::::::::::::::::;;>;>;>;;>>;;;>;;:;:::;;;33V04%@",
"O#<9N444>;>>;>;>;>>;>>::;>::::::::::::::::::::::::::::::::::::::::::::::::::::::::::::::::::::::::::::::>;;>;;>>>>;>;>35:>5;:>;>53;5;5>;>;>;>>>::::::::;;55Vq2%@",
".#<9N4535;;55;>555;>;>>::>::>:::5:::::::>::5::::::::::::>5:::::::::::::::::::::::::::>:::::::::>::::>:::5;5>>53;;>3>3>5;;>;;555;;55;>5;>>;>>;;>:::::;;;;-51Vq1%@",
"O#,9N75:>;;>555;>;;5>;7:::::::::::5:>::5:>:::7:::::::>:>::5:5::5:::::::8:::::::88::::5::>:>::>::::55:7>:5>5;>55>3>>3>>5>:;>>;>53553;;;3;;>;;>;:7::;::;:;::5Vq2%@",
"O#<9N55:>55>>;>>55>>55:::>:>:::>7::>:55:5:7::::::::>::::7::::55:::5::::::::8::::::::>:5:::::::>:5:::::5:5;>>>;>>>>53>>>3>>;555555;>>5>>>>;>;>>::>::::::;335B01%@",
"O#,9N55557>>::::>::5::::::>:>>::::::::5:::5::>:::;:;:>:::::>::::::::::::>>8:::::::::::>>:>:8:::>::5:>::5>>>5;>>5>>>>5>5>>>>55>>>>>>;>:;>>5>>:::::7>:::::;:5Bq2%+",
"O#<9N7777755757:5577>>>>>>>>>8>>>>777>8:7757>8>888>8>>>>>88:8::88:8:8::8>>::8:::8:8:8::>>>:88:::75557557555555>5;3335555353555;>555>5:55;5>35::5:5:5::::5:5B02%+",
"O@,6N---==;;;>>;;;;>::::::::::::::::::::::::;;::;;;:>;>:;;5;::::5:5::::;::::::::::::::::::::::::>>5555::555553>;3;3;;3;;;>;53;;;5;;;;>3;;3;;:;;::;:--;;;;;3N91%+",
"X@,2w88>:e>7>5>>:>>>>>>>>>>>>>>>>8>>>>>>>>>8>8>8>8>88>8>8888>888888888888888888888:8888>888::88>757878777877777>7>>e;e5;e55;e3;e77755555555575:5:555::::555a41%+",
"X@&1qJUPIUDxnnnnnnvvvvvvxxzzkkkkkkjjkhjhhjhhffffhjhhfhfhfffffffffffpffhhssfsssssspspppfpppppppppppspppppippppppppppspppppipisippppfpfphhpspfpsssssfssfsfsgsr4<$O",
"X+#<6YQRWQKMDDDDDDDDDDDMMMZMMCMbnnvvcbvvxxxxxxxxllllkxxkkklllkkkjkkjjhhkgggjggffgfggffffggghffffffssffgsffsffffhfffssffsfffffffghhffffhhhhfjjjjjjgjjgkgkkkj94&$@",
".O#,1DJHHJChlcclcxzxklllzkhhkkhjjkhhhhhhhhhhhhfhhhhhfhfffffphpphpffspspppsspsppsppppspspppppipspppppssesppppupppiipppppppppppiispppppppppppppppppppsppppisi4<%@O",
".O+#,49qwNNNNNNNNNNNNNNNNNBBNBBNNBBBBBBNNBNBNBBNNNNNNNNNBBBBBBNBBBVVaNBBVaVVVaBBVVBBBBBVNNVVdaVaBBBBVaVaBBNBadVNVBBBBNNBNBBBBBBBVBBBahVVBBBBVVVVVVVVBBNarq41%@@o",
"..O@**1469999999999q99999999999q9qqqq99qq9q9999qqq9q9q9q99q999q999990099q0000009000099q9q0090000q990e00999900999990000009909000qqq9wqqq9q9qqqqq0q00qqq0964<%$@oo",
"..XOOO#**,,,<<<<<<1<1<1,11-1<1111-111111111<-111111111111-<<1-1<111-<<1111<-1<-<<12<1111222<1111111<<<1111-2<11121,-1<,2-111<11-111111114121212222221211&%%$@OoX",
"   XOOO@####*#*#*###*#*##*####*##*,##*#,#,#,#*&&*##,#,*#&&#&,&#&#&&&%*%#&%%%&%#&#&%%$&&&$&%#&%%&%%%%%%%%&$#&&&%%&&@&%&*%,%&%&&,&%%%%,%*,*,%%&,&&&&&&&&&%$%@@OOoX",
"   ...OOOOOOOOOOOOOOOOOOOOOO++OO@OOO@O@OOO++@O+O+O+OOO++++++O++OO++OOO+@OOOOO+O++++O@OO++++OO+O@OOO+++o+O+O+Oo@O+++oO+OOOO++O++O++@+@++@+++@+@O++++++++OO@oOOoXo"
};
